<svg xmlns="http://www.w3.org/2000/svg" width="141.766" height="74.585" viewBox="0 0 141.766 74.585"><defs><style>.a{fill:#96988b;}.b{fill:#b3b5a6;}</style></defs><g transform="translate(0 0)"><g transform="translate(0 0)"><path class="a" d="M214.652,202.7c22.755-31.14,52.226-48.618,86.85-55.73l-45.073-18.855-96.694,29.513C175.795,175.857,192.9,192.605,214.652,202.7Z" transform="translate(-159.735 -128.115)"/></g><g transform="translate(14.392 1.898)"><g transform="translate(0 20.544)"><path class="b" d="M208.73,171.615c1.752-2.044,3.567-3.921,5.381-5.8-18.792-13.87-34.122-26.865-44.926-36.626l-8.76,2.691A602.736,602.736,0,0,0,208.73,171.615Z" transform="translate(-160.425 -129.191)"/></g><g transform="translate(22.046 13.787)"><path class="b" d="M170.346,128.867l-8.865,2.711c10.491,9.2,24.132,20.482,40.275,32.35,2-1.773,4-3.587,6.111-5.235C193.122,147.909,180.5,137.606,170.346,128.867Z" transform="translate(-161.482 -128.867)"/></g><g transform="translate(44.426 6.946)"><path class="b" d="M171.482,128.539l-8.927,2.711c9.657,8.155,21.066,17.291,34.164,26.8,2.44-1.585,4.964-2.962,7.488-4.338C191.9,144.891,180.889,136.3,171.482,128.539Z" transform="translate(-162.555 -128.539)"/></g><g transform="translate(67.056)"><path class="b" d="M172.713,128.206l-9.073,2.732c9.114,7.4,19.543,15.372,31.036,23.485,2.857-1.252,5.757-2.378,8.739-3.441C192.152,143.181,181.848,135.443,172.713,128.206Z" transform="translate(-163.64 -128.206)"/></g></g></g></svg>