<svg xmlns="http://www.w3.org/2000/svg" width="201.585" height="95.276" viewBox="0 0 201.585 95.276"><defs><style>.a{fill:#96988b;}.b{fill:#b3b5a6;}</style></defs><g transform="translate(0)"><path class="a" d="M156.916,171.16c17.186-23.089,37.543-41.985,62.071-55.313,0,0,8.551,25.571,22.129,35.04,20.273,14.141,110,28.887,117.384,44.259-36.25-13.516-48.555.814-65.742,15.977Z" transform="translate(-156.916 -115.847)"/></g><g transform="translate(17.52 11.659)"><g transform="translate(43.55 28.262)"><path class="b" d="M200.724,120.89c-3.024-1.043-5.715-2.086-8.2-3.129-10.741,10.032-21.8,21.233-32.683,33.372l8.364,2.44C179.1,141.643,190.087,130.692,200.724,120.89Z" transform="translate(-159.844 -117.761)"/></g><path class="b" d="M207.188,116.406a542.781,542.781,0,0,0-49.432,48.827l8.364,2.44a535.462,535.462,0,0,1,44.822-44.134C209.5,121.057,208.272,118.679,207.188,116.406Z" transform="translate(-157.756 -116.406)"/><g transform="translate(21.775 16.728)"><path class="b" d="M202.454,122.756a35.983,35.983,0,0,1-5.59-5.548,533.462,533.462,0,0,0-38.064,38.5l8.343,2.44C178.969,145.094,190.962,133.247,202.454,122.756Z" transform="translate(-158.8 -117.208)"/></g><g transform="translate(87.121 41.944)"><path class="b" d="M202.855,120.92c-2.92-.834-5.9-1.669-8.844-2.5-10.512,9.761-21.379,20.669-32.078,32.5l8.343,2.441C181.2,141.485,192.259,130.618,202.855,120.92Z" transform="translate(-161.933 -118.417)"/></g><g transform="translate(108.875 48.243)"><path class="b" d="M204.065,121.368c-2.837-.876-5.736-1.752-8.718-2.649-10.6,9.8-21.546,20.69-32.37,32.6l8.343,2.44C182.311,141.891,193.407,131.066,204.065,121.368Z" transform="translate(-162.976 -118.719)"/></g><g transform="translate(65.325 35.541)"><path class="b" d="M201.539,120.717c-3-.876-5.9-1.752-8.739-2.607-10.491,9.782-21.3,20.69-31.911,32.5l8.343,2.44C180.077,141.22,191.006,130.416,201.539,120.717Z" transform="translate(-160.888 -118.11)"/></g></g></svg>