<svg xmlns="http://www.w3.org/2000/svg" width="194.243" height="137.152" viewBox="0 0 194.243 137.152"><defs><style>.a{fill:#96988b;}.b{fill:#b3b5a6;}</style></defs><g transform="translate(0 0)"><g transform="translate(0 0)"><path class="a" d="M134.185,240.072s43.654-103.244,83.6-130.3c3.087,33.81,43.654,105.7,110.648,135.843C297.079,250.522,134.185,240.072,134.185,240.072Z" transform="translate(-134.185 -109.777)"/></g><g transform="translate(17.791 14.976)"><g transform="translate(67.327 60.695)"><path class="b" d="M178.457,119.766c-1.773-2.107-3.5-4.234-5.193-6.362a557.873,557.873,0,0,0-35,59.235l8.634.355A551.287,551.287,0,0,1,178.457,119.766Z" transform="translate(-138.266 -113.405)"/></g><path class="b" d="M135.038,226.9c2.607.146,5.256.292,8.3.48,19.335-44.76,45.218-83.388,63.865-108.187-1.105-2.92-2.419-6.007-3.212-8.7C184.553,135.857,155.874,177.76,135.038,226.9Z" transform="translate(-135.038 -110.495)"/><g transform="translate(22.151 22.463)"><path class="b" d="M196.106,119.435c-1.46-2.67-2.753-5.277-4.026-7.863-17.228,23.735-38.711,57.024-55.98,95.192,2.669.146,5.569.292,8.447.459C160.523,172.5,179.962,141.961,196.106,119.435Z" transform="translate(-136.1 -111.572)"/></g><g transform="translate(44.53 42.528)"><path class="b" d="M186.729,119.6c-1.627-2.378-3.128-4.713-4.63-7.071a555.093,555.093,0,0,0-44.926,76.317c2.837.125,5.611.271,8.509.417A545.343,545.343,0,0,1,186.729,119.6Z" transform="translate(-137.173 -112.534)"/></g><g transform="translate(137.762 104.662)"><path class="b" d="M158.871,119.935c-2.253-1.418-4.338-2.941-6.507-4.422q-5.35,8.322-10.72,17.437c3.066.021,6.215.083,9.073.062Q154.814,126.223,158.871,119.935Z" transform="translate(-141.643 -115.513)"/></g><g transform="translate(90.353 77.151)"><path class="b" d="M171.2,119.763c-1.9-1.835-3.9-3.65-5.715-5.569-8.593,13.057-17.562,27.72-26.113,43.738,2.941.063,5.882.188,8.8.292C155.743,144.312,163.585,131.38,171.2,119.763Z" transform="translate(-139.37 -114.194)"/></g><g transform="translate(113.839 92.001)"><path class="b" d="M164.669,119.641c-2.023-1.627-4.3-3.045-6.278-4.735-5.924,9.136-11.972,19.105-17.9,29.638,3.024.083,5.923.146,8.843.208C154.449,135.868,159.6,127.5,164.669,119.641Z" transform="translate(-140.496 -114.906)"/></g></g></g></svg>