<svg xmlns="http://www.w3.org/2000/svg" width="213.286" height="102.365" viewBox="0 0 213.286 102.365"><defs><style>.a{fill:#96988b;}.b{fill:#b3b5a6;}</style></defs><g transform="translate(0 0)"><g transform="translate(0 0)"><path class="a" d="M128.332,153.364c63.573-30.076,133.715-41.569,213.286-26.426,0,0-42.736,17.1-59.631,29.492-18.459,13.536-27.657,43.029-64.553,63.927-7.9,4.484-50.579,1-50.579,1C196.347,191.866,179.349,148.441,128.332,153.364Z" transform="translate(-128.332 -120.283)"/></g><g transform="translate(26.593 5.433)"><g transform="translate(16.269 18.22)"><path class="b" d="M135.518,149.574a445.615,445.615,0,0,1,112.337-20c4.464-2.711,9.657-5.465,15.059-8.155-53.707.438-100.24,11.221-132.527,21.545A34.529,34.529,0,0,1,135.518,149.574Z" transform="translate(-130.387 -121.417)"/></g><g transform="translate(24.507 39.474)"><path class="b" d="M217.006,131.154c2.378-3.108,4.755-6.028,7.154-8.718a927.921,927.921,0,0,0-93.378,13.474,32.907,32.907,0,0,1,1.669,7.8C156.582,139.08,186.367,134.22,217.006,131.154Z" transform="translate(-130.782 -122.436)"/></g><g transform="translate(24.862 60.039)"><path class="b" d="M132.238,129.408A39.743,39.743,0,0,1,130.8,137.5c20.461-1.877,44.843-3.942,69.705-5.652,2.523-2.836,4.839-5.652,7.008-8.426C180.919,125.153,154.388,127.385,132.238,129.408Z" transform="translate(-130.799 -123.422)"/></g><g transform="translate(19.502 78.185)"><path class="b" d="M196.075,124.292H134.63a49.012,49.012,0,0,1-4.088,7.884h56.064Q191.737,128.3,196.075,124.292Z" transform="translate(-130.542 -124.292)"/></g><path class="b" d="M129.607,150.715a42.182,42.182,0,0,1,9.636,4.443c31.307-14.642,83.324-29.972,159.432-25.926,7.467-3.3,13.453-5.777,16.039-6.841C222.567,114.444,162.937,133.674,129.607,150.715Z" transform="translate(-129.607 -120.543)"/></g></g></svg>