<svg xmlns="http://www.w3.org/2000/svg" width="100.955" height="136.031" viewBox="0 0 100.955 136.031"><defs><style>.a{fill:#96988b;}.b{fill:#b3b5a6;}</style></defs><g transform="translate(0 0)"><g transform="translate(0 0)"><path class="a" d="M168.706,130.866h-35.9c-3.129,37.251,32.266,109,55.689,136.031a439.049,439.049,0,0,1,45.073-100.8Z" transform="translate(-132.617 -130.866)"/></g><g transform="translate(6.764 0)"><path class="b" d="M217.871,182.383l-55.355-51.392-.25-.125H132.941c6.654,26.3,22.651,77.652,54.229,121.077,1.085-3.17,2.107-6.445,3.233-9.553-23.881-34.811-38.5-74.356-46.24-100.7,12.348,23.214,31.39,56.919,52.226,85.682,1.21-2.92,2.378-5.882,3.608-8.739-18.062-25.634-34.832-54.667-46.491-76.3,14.663,18.417,34.226,42.695,52.164,63.907,1.21-2.607,2.5-5.173,3.755-7.738-15.142-18.041-31.349-38.023-44.593-54.625l49.035,45.531C215.139,186.993,216.537,184.761,217.871,182.383Z" transform="translate(-132.941 -130.866)"/></g></g></svg>