<svg xmlns="http://www.w3.org/2000/svg" width="172.877" height="188.781" viewBox="0 0 172.877 188.781"><defs><style>.a{fill:#96988b;}.b{fill:#b3b5a6;}</style></defs><g transform="translate(0 0)"><g transform="translate(0 0)"><path class="a" d="M331.047,285.214c-5.742-8.026-44.6-61.927-58.83-73.154,14.233-11.227,53.088-65.115,58.83-73.154,7.6-10.633,19.756-15.214,19.756-18.75s-11.33-3.665-28.376,2.026c-21.292,7.11-88.226,58.314-100.9,65.4-10.168,6.775-31.693,13.382-43.6,14.711l2.491,9.769-2.491,9.768c11.911,1.342,33.435,7.936,43.6,14.711,12.672,7.1,79.606,58.3,100.9,65.411,17.047,5.678,28.376,5.549,28.376,2.013S338.647,295.86,331.047,285.214Z" transform="translate(-177.926 -117.668)"/></g><g transform="translate(1.768 1.869)"><path class="b" d="M225.344,208.271c22.1-2.3,39.68-4.194,53.281-5.768q2.323-2.536,4.865-5.5c-13.575,1.613-31.5,3.587-54.262,5.975,21.279-4.62,44.235-9.9,61.217-14.3,1.69-2.078,3.407-4.22,5.149-6.388-16.453,4.439-41.668,10.336-65.282,15.485C259.179,187.766,289.865,175.791,305.9,169c2.065-2.71,4.1-5.394,6.026-7.975-9.485,4.465-40.88,17.008-72.315,28.26,21.821-10.814,43.448-22.827,58.921-31.447,6.633-3.7,12.052-6.71,15.73-8.646a52.522,52.522,0,0,1,9.072-3.613c1.871-2.555,3.433-4.723,4.568-6.323A70.715,70.715,0,0,0,312,144.886c-3.7,1.936-9.149,4.981-15.821,8.7-13.64,7.588-32.093,17.859-51.152,27.55,13.6-8.968,26.737-18.453,38.364-26.892,12.427-9.033,23.189-16.827,30.505-21.021,9.226-5.265,20.724-8.181,30.634-9.794,2.736-2.039,4.646-3.6,4.646-4.994a1.47,1.47,0,0,0-.271-.619c-11.24,1.445-25.808,4.568-37.435,11.188-7.536,4.31-18.375,12.182-30.944,21.3-26.892,19.537-61.85,44.661-91.426,55.165v2.8H178.257l.529,2.065-.723,2.813H189.1v1.536c29.577,10.491,64.534,35.628,91.426,55.165,12.569,9.11,23.408,16.995,30.944,21.3,11.7,6.671,26.389,9.756,37.654,11.214l.052-.129c0-1.536-2.336-3.3-5.562-5.652-9.678-1.639-20.789-4.555-29.718-9.665-7.317-4.181-18.079-11.975-30.505-21.008-11.627-8.439-24.763-17.924-38.364-26.892,19.06,9.691,37.512,19.95,51.152,27.537,6.671,3.716,12.117,6.775,15.821,8.71a69.5,69.5,0,0,0,15.459,5.5c-1.213-1.677-2.736-3.794-4.607-6.336a52.186,52.186,0,0,1-8.581-3.471c-3.678-1.936-9.1-4.955-15.73-8.646-15.472-8.62-37.1-20.634-58.921-31.448,30.88,11.059,61.643,23.318,71.722,27.989-1.936-2.581-3.962-5.252-6.013-7.949-16.208-6.839-46.507-18.634-75.012-28.544,23.357,5.11,48.3,10.93,64.753,15.356-1.742-2.181-3.458-4.323-5.149-6.388-16.93-4.388-39.642-9.588-60.688-14.156,22.479,2.361,40.222,4.323,53.759,5.91-1.716-1.961-3.342-3.82-4.891-5.484-10.981-1.265-24.26-2.736-40.7-4.452h36.338c-1.123-1.1-2.194-2.052-3.149-2.813.71-.555,1.536-1.3,2.349-2.065Z" transform="translate(-178.063 -117.813)"/></g></g></svg>