<?xml version="1.0" encoding="utf-8"?>
<!-- Generator: Adobe Illustrator 25.4.1, SVG Export Plug-In . SVG Version: 6.00 Build 0)  -->
<svg version="1.1" id="Layer_1" xmlns="http://www.w3.org/2000/svg" xmlns:xlink="http://www.w3.org/1999/xlink" x="0px" y="0px"
	 viewBox="0 0 241.6 99.6" style="enable-background:new 0 0 241.6 99.6;" xml:space="preserve">
<style type="text/css">
	.st0{opacity:8.900000e-02;enable-background:new    ;}
	.st1{fill:#82BD55;}
	.st2{enable-background:new    ;}
	.st3{fill:#F6F6F4;}
</style>
<g id="Group_54" transform="translate(-1573 -962)">
	<g id="Group_37" transform="translate(1573 962)">
		<g id="Group_609">
			<path id="Path_13849" class="st0" d="M11.8,0.5l223.3,7.4c1.4,0,2.5,2.2,2.5,4.9l-0.8,81.9c0,2.7-1.2,4.8-2.6,4.7L11,92.1
				c-1.4,0-2.5-2.2-2.5-4.9L9.2,5.3C9.2,2.6,10.4,0.5,11.8,0.5z"/>
			<path id="Rectangle_29" class="st1" d="M3,0h235.6c1.7,0,3,1.3,3,3v85.6c0,1.7-1.3,3-3,3H3c-1.7,0-3-1.3-3-3V3C0,1.3,1.3,0,3,0z"
				/>
		</g>
		<g class="st2">
			<path class="st3" d="M69.3,50l6.3-0.6c0.4,2.1,1.2,3.7,2.3,4.7c1.2,1,2.7,1.5,4.7,1.5c2.1,0,3.7-0.4,4.7-1.3
				c1.1-0.9,1.6-1.9,1.6-3.1c0-0.8-0.2-1.4-0.7-1.9c-0.4-0.5-1.2-1-2.3-1.4c-0.8-0.3-2.5-0.7-5.2-1.4c-3.5-0.9-5.9-1.9-7.3-3.2
				c-2-1.8-3-3.9-3-6.5c0-1.6,0.5-3.2,1.4-4.6c0.9-1.4,2.3-2.5,4-3.3c1.8-0.7,3.9-1.1,6.3-1.1c4,0,7.1,0.9,9.1,2.7
				c2,1.8,3.1,4.1,3.2,7.1l-6.5,0.3c-0.3-1.7-0.9-2.8-1.8-3.6c-0.9-0.7-2.3-1.1-4.1-1.1c-1.9,0-3.4,0.4-4.4,1.2c-0.7,0.5-1,1.2-1,2
				c0,0.8,0.3,1.4,1,2c0.8,0.7,2.8,1.4,6,2.2c3.2,0.7,5.5,1.5,7,2.3c1.5,0.8,2.7,1.9,3.6,3.3c0.9,1.4,1.3,3.1,1.3,5.1
				c0,1.8-0.5,3.6-1.5,5.2c-1,1.6-2.5,2.8-4.4,3.6c-1.9,0.8-4.2,1.2-7,1.2c-4.1,0-7.2-0.9-9.4-2.8C71.1,56.4,69.8,53.6,69.3,50z"/>
			<path class="st3" d="M111.7,37.2v4.9h-4.2v9.4c0,1.9,0,3,0.1,3.3c0.1,0.3,0.3,0.6,0.5,0.8c0.3,0.2,0.6,0.3,1,0.3
				c0.6,0,1.4-0.2,2.5-0.6l0.5,4.8c-1.4,0.6-3.1,0.9-4.9,0.9c-1.1,0-2.1-0.2-3-0.6c-0.9-0.4-1.5-0.9-2-1.5c-0.4-0.6-0.7-1.4-0.9-2.4
				c-0.1-0.7-0.2-2.2-0.2-4.4V42.1h-2.8v-4.9h2.8v-4.6l6.2-3.6v8.2H111.7z"/>
			<path class="st3" d="M120.6,44.3l-5.6-1c0.6-2.3,1.7-3.9,3.3-5s3.8-1.6,6.9-1.6c2.8,0,4.8,0.3,6.2,1c1.3,0.7,2.3,1.5,2.8,2.5
				c0.5,1,0.8,2.8,0.8,5.5l-0.1,7.2c0,2.1,0.1,3.6,0.3,4.5c0.2,1,0.6,2,1.1,3.1h-6.1c-0.2-0.4-0.4-1-0.6-1.8
				c-0.1-0.4-0.2-0.6-0.2-0.7c-1.1,1-2.2,1.8-3.4,2.3c-1.2,0.5-2.5,0.8-3.8,0.8c-2.4,0-4.3-0.7-5.7-2c-1.4-1.3-2.1-3-2.1-4.9
				c0-1.3,0.3-2.5,0.9-3.5c0.6-1,1.5-1.8,2.6-2.4c1.1-0.5,2.8-1,4.9-1.4c2.9-0.5,4.9-1,6-1.5v-0.6c0-1.2-0.3-2-0.9-2.5
				c-0.6-0.5-1.7-0.8-3.3-0.8c-1.1,0-2,0.2-2.6,0.6C121.4,42.4,120.9,43.2,120.6,44.3z M128.8,49.3c-0.8,0.3-2,0.6-3.8,0.9
				c-1.7,0.4-2.8,0.7-3.4,1.1c-0.8,0.6-1.2,1.3-1.2,2.2c0,0.9,0.3,1.6,1,2.2s1.5,0.9,2.5,0.9c1.1,0,2.2-0.4,3.2-1.1
				c0.7-0.6,1.2-1.2,1.5-2c0.2-0.5,0.2-1.5,0.2-3V49.3z"/>
			<path class="st3" d="M146.9,60.5h-6.2V37.2h5.7v3.3c1-1.6,1.9-2.6,2.6-3.1c0.8-0.5,1.7-0.7,2.7-0.7c1.4,0,2.8,0.4,4.1,1.2
				l-1.9,5.4c-1-0.7-2-1-2.9-1c-0.9,0-1.6,0.2-2.2,0.7c-0.6,0.5-1.1,1.3-1.4,2.6c-0.3,1.2-0.5,3.9-0.5,7.8V60.5z"/>
			<path class="st3" d="M169.2,37.2v4.9H165v9.4c0,1.9,0,3,0.1,3.3c0.1,0.3,0.3,0.6,0.5,0.8c0.3,0.2,0.6,0.3,1,0.3
				c0.6,0,1.4-0.2,2.5-0.6l0.5,4.8c-1.4,0.6-3.1,0.9-4.9,0.9c-1.1,0-2.1-0.2-3-0.6c-0.9-0.4-1.5-0.9-2-1.5c-0.4-0.6-0.7-1.4-0.9-2.4
				c-0.1-0.7-0.2-2.2-0.2-4.4V42.1h-2.8v-4.9h2.8v-4.6l6.2-3.6v8.2H169.2z"/>
		</g>
	</g>
</g>
</svg>
