<?xml version="1.0" encoding="utf-8"?>
<!-- Generator: Adobe Illustrator 25.4.1, SVG Export Plug-In . SVG Version: 6.00 Build 0)  -->
<svg version="1.1" id="Layer_1" xmlns="http://www.w3.org/2000/svg" xmlns:xlink="http://www.w3.org/1999/xlink" x="0px" y="0px"
	 viewBox="0 0 241.6 99.6" style="enable-background:new 0 0 241.6 99.6;" xml:space="preserve">
<style type="text/css">
	.st0{opacity:8.900000e-02;enable-background:new    ;}
	.st1{fill:#82BD55;}
	.st2{enable-background:new    ;}
	.st3{fill:#F6F6F4;}
</style>
<g id="Group_54" transform="translate(-1573 -962)">
	<g id="Group_37" transform="translate(1573 962)">
		<g id="Group_609">
			<path id="Path_13849" class="st0" d="M11.8,0.5l223.3,7.4c1.4,0,2.5,2.2,2.5,4.9l-0.8,81.9c0,2.7-1.2,4.8-2.6,4.7L11,92.1
				c-1.4,0-2.5-2.2-2.5-4.9L9.2,5.3C9.2,2.6,10.4,0.5,11.8,0.5z"/>
			<path id="Rectangle_29" class="st1" d="M3,0h235.6c1.7,0,3,1.3,3,3v85.6c0,1.7-1.3,3-3,3H3c-1.7,0-3-1.3-3-3V3C0,1.3,1.3,0,3,0z"
				/>
		</g>
		<g class="st2">
			<path class="st3" d="M60.3,47l6.3-0.6c0.4,2.1,1.2,3.7,2.3,4.7c1.2,1,2.7,1.5,4.7,1.5c2.1,0,3.7-0.4,4.7-1.3
				c1.1-0.9,1.6-1.9,1.6-3.1c0-0.8-0.2-1.4-0.7-1.9c-0.4-0.5-1.2-1-2.3-1.4c-0.8-0.3-2.5-0.7-5.2-1.4c-3.5-0.9-5.9-1.9-7.3-3.2
				c-2-1.8-3-3.9-3-6.5c0-1.6,0.5-3.2,1.4-4.6c0.9-1.4,2.3-2.5,4-3.3c1.8-0.7,3.9-1.1,6.3-1.1c4,0,7.1,0.9,9.1,2.7
				c2,1.8,3.1,4.1,3.2,7.1l-6.5,0.3c-0.3-1.7-0.9-2.8-1.8-3.6c-0.9-0.7-2.3-1.1-4.1-1.1c-1.9,0-3.4,0.4-4.4,1.2c-0.7,0.5-1,1.2-1,2
				c0,0.8,0.3,1.4,1,2c0.8,0.7,2.8,1.4,6,2.2c3.2,0.7,5.5,1.5,7,2.3c1.5,0.8,2.7,1.9,3.6,3.3c0.9,1.4,1.3,3.1,1.3,5.1
				c0,1.8-0.5,3.6-1.5,5.2c-1,1.6-2.5,2.8-4.4,3.6c-1.9,0.8-4.2,1.2-7,1.2c-4.1,0-7.2-0.9-9.4-2.8C62.1,53.4,60.8,50.6,60.3,47z"/>
			<path class="st3" d="M96.3,57.5l-7.4-23.3h6l4.4,15.3l4-15.3h6l3.9,15.3l4.5-15.3h6.1l-7.5,23.3h-5.9l-4-15l-4,15H96.3z"/>
			<path class="st3" d="M127,31v-5.7h6.2V31H127z M127,57.5V34.2h6.2v23.3H127z"/>
			<path class="st3" d="M139,34.2h5.7v3.2c2-2.5,4.5-3.7,7.3-3.7c1.5,0,2.8,0.3,3.9,0.9s2,1.5,2.7,2.8c1-1.2,2.1-2.2,3.3-2.8
				s2.5-0.9,3.8-0.9c1.7,0,3.2,0.3,4.4,1c1.2,0.7,2.1,1.7,2.7,3.1c0.4,1,0.6,2.6,0.6,4.8v14.9h-6.2V44.2c0-2.3-0.2-3.8-0.6-4.5
				c-0.6-0.9-1.5-1.3-2.6-1.3c-0.9,0-1.7,0.3-2.4,0.8s-1.3,1.3-1.6,2.3c-0.3,1-0.5,2.6-0.5,4.8v11.2h-6.2V44.7
				c0-2.3-0.1-3.7-0.3-4.4s-0.6-1.1-1-1.5c-0.5-0.3-1.1-0.5-1.9-0.5c-1,0-1.8,0.3-2.6,0.8s-1.3,1.3-1.6,2.2c-0.3,1-0.5,2.6-0.5,4.8
				v11.3H139V34.2z"/>
			<path class="st3" d="M181.9,49.2l-1.6-16.3v-7.6h6.7v7.6l-1.6,16.3H181.9z M180.5,57.5v-6.2h6.2v6.2H180.5z"/>
		</g>
	</g>
</g>
</svg>
